<?xml version="1.0" encoding="UTF-8"?>
<svg id="Layer_2" data-name="Layer 2" xmlns="http://www.w3.org/2000/svg" viewBox="0 0 1866.72 366.57">
  <g id="Layer_1-2" data-name="Layer 1">
    <g>
      <path d="M241.12,0h130.33v3.34h-1.03c-32.9,0-59.9,40.62-100.77,148.32l-80.72,211.82h-16.97L32.39,3.34H0V0h153.47v3.34h-39.59l104.62,273.51,47.3-125.45c13.11-34.7,18.51-63.24,18.51-85.86,0-41.39-18.51-62.21-40.1-62.21h-3.08V0Z"/>
      <path d="M505.62,3.34v353.2h42.16v3.34h-159.63v-3.34h41.9V3.34h-41.9V0h159.63v3.34h-42.16Z"/>
      <path d="M900.46,0l4.63,125.19h-3.34l-1.03-15.42c-3.34-50.38-31.36-106.42-110.79-106.42h-12.08v353.2h42.16v3.34h-160.15v-3.34h42.16V3.34h-12.08c-78.66,0-107.71,55.01-110.79,106.42l-.77,15.42h-3.34l4.63-125.19h320.81Z"/>
      <path d="M1277.82,300.25c-2.57,44.99-17.48,66.32-54.5,66.32-53.98,0-69.66-39.84-76.6-99.23-9.25-78.4-16.97-82.77-96.91-85.86v175.06h42.42v3.34h-159.89v-3.34h41.9V3.34h-41.9V0h161.18c84.57,0,134.19,33.42,134.19,91,0,73-77.38,86.89-142.67,89.46.51,0,.26.51,0,.51,121.08,6.68,141.38,38.04,144.47,124.42.77,22.36,2.83,48.07,19.28,48.07,13.62,0,23.39-18.77,25.71-53.73l3.34.51ZM1049.8,178.14c6.17.26,12.6.26,20.31.26,13.62,0,30.85-1.54,41.64-6.43,23.14-10.54,34.19-35.73,34.19-78.4,0-56.04-19.28-90.23-76.35-90.23h-19.79v174.8Z"/>
      <path d="M1410.19,3.34v353.2h42.16v3.34h-159.63v-3.34h41.9V3.34h-41.9V0h159.63v3.34h-42.16Z"/>
      <path d="M1735.88,0h130.84v3.34h-3.6c-35.22,0-58.61,34.96-58.61,133.16v223.39h-18.51L1539.48,25.71v197.68c0,97.17,23.91,133.16,61.69,133.16h3.34v3.34h-130.84v-3.34h3.34c35.22,0,58.87-34.96,58.87-133.16V20.82l-12.85-17.48h-36.25V0h128.27l185.86,252.43v-115.93c0-97.17-23.65-133.16-61.69-133.16h-3.34V0Z"/>
    </g>
  </g>
</svg>