<?xml version="1.0" encoding="UTF-8"?>
<svg id="Layer_1" xmlns="http://www.w3.org/2000/svg" version="1.1" viewBox="0 0 3853.5 637.5">
  <!-- Generator: Adobe Illustrator 30.2.1, SVG Export Plug-In . SVG Version: 2.1.1 Build 1)  -->
  <g>
    <path d="M1114.6,10.5h219v5.6h-1.7c-55.3,0-100.7,68.3-169.4,249.3l-135.7,356h-28.5L763.7,16.2h-54.4v-5.6h257.9v5.6h-66.5l175.8,459.7,79.5-210.8c22-58.3,31.1-106.3,31.1-144.3,0-69.6-31.1-104.6-67.4-104.6h-5.2v-5.6Z"/>
    <path d="M1559.1,16.2v593.6h70.9v5.6h-268.3v-5.6h70.4V16.2h-70.4v-5.6h268.3v5.6h-70.9Z"/>
    <path d="M2222.7,10.5l7.8,210.4h-5.6l-1.7-25.9c-5.6-84.7-52.7-178.9-186.2-178.9h-20.3v593.6h70.9v5.6h-269.2v-5.6h70.9V16.2h-20.3c-132.2,0-181,92.5-186.2,178.9l-1.3,25.9h-5.6l7.8-210.4h539.2Z"/>
    <path d="M2856.9,515.2c-4.3,75.6-29.4,111.5-91.6,111.5-90.7,0-117.1-67-128.7-166.8-15.6-131.8-28.5-139.1-162.9-144.3v294.2h71.3v5.6h-268.7v-5.6h70.4V16.2h-70.4v-5.6h270.9c142.1,0,225.5,56.2,225.5,152.9s-130,146-239.8,150.3c.9,0,.4.9,0,.9,203.5,11.2,237.6,63.9,242.8,209.1,1.3,37.6,4.8,80.8,32.4,80.8s39.3-31.5,43.2-90.3l5.6.9ZM2473.7,309.9c10.4.4,21.2.4,34.1.4,22.9,0,51.8-2.6,70-10.8,38.9-17.7,57.5-60.1,57.5-131.8s-32.4-151.6-128.3-151.6h-33.3v293.8Z"/>
    <path d="M3079.4,16.2v593.6h70.9v5.6h-268.3v-5.6h70.4V16.2h-70.4v-5.6h268.3v5.6h-70.9Z"/>
    <path d="M3626.8,10.5h219.9v5.6h-6c-59.2,0-98.5,58.8-98.5,223.8v375.4h-31.1L3296.7,53.7v332.2c0,163.3,40.2,223.8,103.7,223.8h5.6v5.6h-219.9v-5.6h5.6c59.2,0,98.9-58.8,98.9-223.8V45.5l-21.6-29.4h-60.9v-5.6h215.6l312.4,424.3v-194.8c0-163.3-39.7-223.8-103.7-223.8h-5.6v-5.6Z"/>
  </g>
  <g>
    <path d="M366.8,29.2c-17.9,8.2-35.6,19.2-52.7,32.5-32.5,25.4-62.8,59.7-87.9,101.5-6.1,10-11.8,20.5-17.2,31.4-19.7,39.6-33.2,80.8-40.6,121.3-4.6,25.3-6.9,50.3-6.9,74.6s2.9,53.7,8.7,78.2c12.9,54.9,40.1,100.4,80.7,127.5,3.5,2.3,7.1,4.5,10.7,6.5-26.6,12.2-53.6,18.7-79.9,18.7s-13.5-.4-20.1-1.3c-22.2-2.9-43.6-10.7-63.4-23.9-40.5-27.1-67.7-72.6-80.7-127.5-5.8-24.5-8.7-50.8-8.7-78.2s2.3-49.3,6.9-74.6c7.4-40.5,20.9-81.8,40.6-121.3,5.4-10.9,11.2-21.3,17.2-31.4,25.2-41.8,55.4-76.1,87.9-101.5C203.8,28.6,250,10.5,294,10.5s13.5.4,20.1,1.3c18.3,2.4,36,8.1,52.7,17.4Z"/>
    <path d="M619.6,241.4c0,24.2-2.3,49.3-6.9,74.6-7.4,40.5-20.9,81.8-40.6,121.3-5.4,10.9-11.2,21.3-17.2,31.4-25.2,41.8-55.4,76.1-87.9,101.5-42.4,33.1-88.6,51.2-132.6,51.2h-152.7c26.3,0,53.3-6.4,79.9-18.7,17.9-8.2,35.6-19.2,52.7-32.5,32.5-25.4,62.7-59.7,87.9-101.5,6.1-10,11.8-20.5,17.2-31.4,19.7-39.6,33.2-80.8,40.6-121.3,4.7-25.3,6.9-50.4,6.9-74.6s-2.9-53.7-8.7-78.2c-12.9-54.9-40.1-100.4-80.7-127.5-3.5-2.3-7.1-4.5-10.7-6.5-16.7-9.3-34.4-15-52.7-17.4-6.7-.9-13.4-1.3-20.1-1.3h152.7c6.8,0,13.5.4,20.1,1.3,22.3,2.9,43.6,10.7,63.4,23.9,40.5,27.1,67.7,72.6,80.7,127.5,5.8,24.5,8.7,50.8,8.7,78.2Z" fill="#0cb7dd"/>
    <path d="M619.6,621.4h-90.6c-26,0-50.5-12.6-65.5-33.9l-192.5-271.6h90.6c26,0,50.5,12.6,65.5,33.9l192.5,271.6Z"/>
  </g>
</svg>