<?xml version="1.0" encoding="UTF-8"?>
<svg id="Layer_1" xmlns="http://www.w3.org/2000/svg" version="1.1" viewBox="0 0 628.5 624.4">
  <!-- Generator: Adobe Illustrator 30.2.1, SVG Export Plug-In . SVG Version: 2.1.1 Build 1)  -->
  <path d="M366.9,25.4c-17.9,8.2-35.6,19.2-52.7,32.5-32.5,25.4-62.8,59.7-87.9,101.5-6.1,10-11.8,20.5-17.2,31.4-19.7,39.6-33.2,80.8-40.6,121.3-4.6,25.3-6.9,50.3-6.9,74.6s2.9,53.7,8.7,78.2c12.9,54.9,40.1,100.4,80.7,127.5,3.5,2.3,7.1,4.5,10.7,6.5-26.6,12.2-53.6,18.7-79.9,18.7s-13.5-.4-20.1-1.3c-22.2-2.9-43.6-10.7-63.4-23.9-40.5-27.1-67.7-72.6-80.7-127.5-5.8-24.5-8.7-50.8-8.7-78.2s2.3-49.3,6.9-74.6c7.4-40.5,20.9-81.8,40.6-121.3,5.4-10.9,11.2-21.3,17.2-31.4,25.2-41.8,55.4-76.1,87.9-101.5C203.9,24.8,250.1,6.7,294.1,6.7s13.5.4,20.1,1.3c18.3,2.4,36,8.1,52.7,17.4Z"/>
  <path d="M619.7,237.6c0,24.2-2.3,49.3-6.9,74.6-7.4,40.5-20.9,81.8-40.6,121.3-5.4,10.9-11.2,21.3-17.2,31.4-25.2,41.8-55.4,76.1-87.9,101.5-42.4,33.1-88.6,51.2-132.6,51.2h-152.7c26.3,0,53.3-6.4,79.9-18.7,17.9-8.2,35.6-19.2,52.7-32.5,32.5-25.4,62.7-59.7,87.9-101.5,6.1-10,11.8-20.5,17.2-31.4,19.7-39.6,33.2-80.8,40.6-121.3,4.7-25.3,6.9-50.4,6.9-74.6s-2.9-53.7-8.7-78.2c-12.9-54.9-40.1-100.4-80.7-127.5-3.5-2.3-7.1-4.5-10.7-6.5-16.7-9.3-34.4-15-52.7-17.4-6.7-.9-13.4-1.3-20.1-1.3h152.7c6.8,0,13.5.4,20.1,1.3,22.3,2.9,43.6,10.7,63.4,23.9,40.5,27.1,67.7,72.6,80.7,127.5,5.8,24.5,8.7,50.8,8.7,78.2Z" fill="#0cb7dd"/>
  <path d="M619.7,617.6h-90.6c-26,0-50.5-12.6-65.5-33.9l-192.5-271.6h90.6c26,0,50.5,12.6,65.5,33.9l192.5,271.6Z"/>
</svg>