<?xml version="1.0" encoding="UTF-8"?>
<svg id="Layer_2" data-name="Layer 2" xmlns="http://www.w3.org/2000/svg" viewBox="0 0 2283.57 366.57">
  <defs>
    <style>
      .cls-1 {
        fill: #0cb7dd;
      }
    </style>
  </defs>
  <g id="Layer_1-2" data-name="Layer 1">
    <g>
      <g>
        <path d="M657.97,0h130.33v3.34h-1.03c-32.9,0-59.9,40.62-100.77,148.32l-80.72,211.82h-16.97L449.24,3.34h-32.39V0h153.47v3.34h-39.59l104.62,273.51,47.3-125.45c13.11-34.7,18.51-63.24,18.51-85.86,0-41.39-18.51-62.21-40.1-62.21h-3.08V0Z"/>
        <path d="M922.47,3.34v353.2h42.16v3.34h-159.63v-3.34h41.9V3.34h-41.9V0h159.63v3.34h-42.16Z"/>
        <path d="M1317.31,0l4.63,125.19h-3.34l-1.03-15.42c-3.34-50.38-31.36-106.42-110.79-106.42h-12.08v353.2h42.16v3.34h-160.15v-3.34h42.16V3.34h-12.08c-78.66,0-107.71,55.01-110.79,106.42l-.77,15.42h-3.34l4.63-125.19h320.81Z"/>
        <path d="M1694.67,300.25c-2.57,44.99-17.48,66.32-54.5,66.32-53.98,0-69.66-39.84-76.6-99.23-9.25-78.4-16.97-82.77-96.91-85.86v175.06h42.42v3.34h-159.89v-3.34h41.9V3.34h-41.9V0h161.18c84.57,0,134.19,33.42,134.19,91,0,73-77.38,86.89-142.67,89.46.51,0,.26.51,0,.51,121.08,6.68,141.38,38.04,144.47,124.42.77,22.36,2.83,48.07,19.28,48.07,13.62,0,23.39-18.77,25.71-53.73l3.34.51ZM1466.65,178.14c6.17.26,12.6.26,20.31.26,13.62,0,30.85-1.54,41.64-6.43,23.14-10.54,34.19-35.73,34.19-78.4,0-56.04-19.28-90.23-76.35-90.23h-19.79v174.8Z"/>
        <path d="M1827.04,3.34v353.2h42.16v3.34h-159.63v-3.34h41.9V3.34h-41.9V0h159.63v3.34h-42.16Z"/>
        <path d="M2152.73,0h130.84v3.34h-3.6c-35.22,0-58.61,34.96-58.61,133.16v223.39h-18.51L1956.33,25.71v197.68c0,97.17,23.91,133.16,61.69,133.16h3.34v3.34h-130.84v-3.34h3.34c35.22,0,58.87-34.96,58.87-133.16V20.82l-12.85-17.48h-36.25V0h128.27l185.86,252.43v-115.93c0-97.17-23.65-133.16-61.69-133.16h-3.34V0Z"/>
      </g>
      <g>
        <path d="M213.08,11.12c-10.67,4.91-21.19,11.39-31.35,19.35-19.35,15.12-37.34,35.53-52.31,60.4-3.6,5.97-7.03,12.2-10.26,18.67-11.75,23.55-19.76,48.08-24.18,72.2-2.76,15.05-4.12,29.96-4.12,44.36,0,16.28,1.74,31.94,5.17,46.5,7.69,32.64,23.88,59.73,47.99,75.86,2.09,1.39,4.21,2.69,6.36,3.88-15.81,7.29-31.91,11.12-47.54,11.12-4.03,0-8.03-.25-11.98-.77-13.23-1.73-25.97-6.39-37.7-14.23-24.11-16.13-40.3-43.22-47.99-75.86-3.43-14.56-5.17-30.22-5.17-46.5,0-14.41,1.36-29.31,4.12-44.36,4.42-24.12,12.43-48.65,24.18-72.2,3.23-6.48,6.65-12.7,10.26-18.67,14.98-24.87,32.96-45.27,52.31-60.39C116.07,10.76,143.58,0,169.76,0c4.03,0,8.03.25,11.98.77,10.88,1.42,21.43,4.82,31.35,10.35Z"/>
        <path class="cls-1" d="M363.47,137.37c0,14.41-1.36,29.31-4.13,44.37-4.41,24.12-12.42,48.65-24.17,72.19-3.23,6.48-6.65,12.7-10.26,18.67-14.98,24.87-32.96,45.27-52.31,60.39-25.21,19.72-52.72,30.48-78.89,30.48h-90.86c15.63,0,31.73-3.84,47.54-11.12,10.67-4.91,21.2-11.4,31.36-19.35,19.35-15.12,37.33-35.52,52.31-60.39,3.6-5.97,7.03-12.2,10.26-18.67,11.75-23.54,19.76-48.07,24.17-72.19,2.77-15.06,4.13-29.96,4.13-44.37,0-16.28-1.74-31.94-5.17-46.5-7.69-32.64-23.88-59.73-47.99-75.86-2.09-1.39-4.21-2.69-6.36-3.88-9.92-5.52-20.46-8.93-31.35-10.35-3.96-.52-7.95-.77-11.98-.77h90.86c4.03,0,8.03.25,11.98.77,13.24,1.73,25.97,6.39,37.7,14.23,24.11,16.13,40.3,43.22,47.99,75.86,3.43,14.56,5.17,30.22,5.17,46.5Z"/>
        <path d="M363.47,363.47h-53.93c-15.5,0-30.03-7.51-38.99-20.16l-114.52-161.58h53.93c15.5,0,30.03,7.51,38.99,20.16l114.52,161.58Z"/>
      </g>
    </g>
  </g>
</svg>