<?xml version="1.0" encoding="UTF-8"?>
<svg id="Layer_2" data-name="Layer 2" xmlns="http://www.w3.org/2000/svg" viewBox="0 0 363.47 363.47">
  <defs>
    <style>
      .cls-1 {
        fill: #0cb7dd;
      }
    </style>
  </defs>
  <g id="Layer_1-2" data-name="Layer 1">
    <g>
      <path d="M213.08,11.12c-10.67,4.91-21.19,11.39-31.35,19.35-19.35,15.12-37.34,35.53-52.31,60.4-3.6,5.97-7.03,12.2-10.26,18.67-11.75,23.55-19.76,48.08-24.18,72.2-2.76,15.05-4.12,29.96-4.12,44.36,0,16.28,1.74,31.94,5.17,46.5,7.69,32.64,23.88,59.73,47.99,75.86,2.09,1.39,4.21,2.69,6.36,3.88-15.81,7.29-31.91,11.12-47.54,11.12-4.03,0-8.03-.25-11.98-.77-13.23-1.73-25.97-6.39-37.7-14.23-24.11-16.13-40.3-43.22-47.99-75.86-3.43-14.56-5.17-30.22-5.17-46.5,0-14.41,1.36-29.31,4.12-44.36,4.42-24.12,12.43-48.65,24.18-72.2,3.23-6.48,6.65-12.7,10.26-18.67,14.98-24.87,32.96-45.27,52.31-60.39C116.07,10.76,143.58,0,169.76,0c4.03,0,8.03.25,11.98.77,10.88,1.42,21.43,4.82,31.35,10.35Z"/>
      <path class="cls-1" d="M363.47,137.37c0,14.41-1.36,29.31-4.13,44.37-4.41,24.12-12.42,48.65-24.17,72.19-3.23,6.48-6.65,12.7-10.26,18.67-14.98,24.87-32.96,45.27-52.31,60.39-25.21,19.72-52.72,30.48-78.89,30.48h-90.86c15.63,0,31.73-3.84,47.54-11.12,10.67-4.91,21.2-11.4,31.36-19.35,19.35-15.12,37.33-35.52,52.31-60.39,3.6-5.97,7.03-12.2,10.26-18.67,11.75-23.54,19.76-48.07,24.17-72.19,2.77-15.06,4.13-29.96,4.13-44.37,0-16.28-1.74-31.94-5.17-46.5-7.69-32.64-23.88-59.73-47.99-75.86-2.09-1.39-4.21-2.69-6.36-3.88-9.92-5.52-20.46-8.93-31.35-10.35-3.96-.52-7.95-.77-11.98-.77h90.86c4.03,0,8.03.25,11.98.77,13.24,1.73,25.97,6.39,37.7,14.23,24.11,16.13,40.3,43.22,47.99,75.86,3.43,14.56,5.17,30.22,5.17,46.5Z"/>
      <path d="M363.47,363.47h-53.93c-15.5,0-30.03-7.51-38.99-20.16l-114.52-161.58h53.93c15.5,0,30.03,7.51,38.99,20.16l114.52,161.58Z"/>
    </g>
  </g>
</svg>